<?xml version="1.0" encoding="UTF-8" standalone="no"?>
<svg
   xmlns:dc="http://purl.org/dc/elements/1.1/"
   xmlns:cc="http://creativecommons.org/ns#"
   xmlns:rdf="http://www.w3.org/1999/02/22-rdf-syntax-ns#"
   xmlns:svg="http://www.w3.org/2000/svg"
   xmlns="http://www.w3.org/2000/svg"
   xmlns:xlink="http://www.w3.org/1999/xlink"
   xmlns:sodipodi="http://sodipodi.sourceforge.net/DTD/sodipodi-0.dtd"
   xmlns:inkscape="http://www.inkscape.org/namespaces/inkscape"
   width="100mm"
   height="150mm"
   viewBox="0 0 100 150"
   version="1.1"
   id="svg8"
   inkscape:version="1.0 (4035a4f, 2020-05-01)"
   sodipodi:docname="mini.svg">
  <defs
     id="defs2">
    <marker
       style="overflow:visible"
       refY="0"
       refX="0"
       orient="auto"
       id="DistanceX">
      <path
         id="path66"
         style="stroke:#000000;stroke-width:0.5"
         d="M 3,-3 -3,3 M 0,-5 V 5" />
    </marker>
    <pattern
       y="0"
       x="0"
       height="8"
       width="8"
       patternUnits="userSpaceOnUse"
       id="Hatch">
      <path
         id="path69"
         linecap="square"
         stroke-width="0.25"
         stroke="#000000"
         d="M8 4 l-4,4" />
      <path
         id="path71"
         linecap="square"
         stroke-width="0.25"
         stroke="#000000"
         d="M6 2 l-4,4" />
      <path
         id="path73"
         linecap="square"
         stroke-width="0.25"
         stroke="#000000"
         d="M4 0 l-4,4" />
    </pattern>
    <symbol
       id="*Model_Space" />
    <symbol
       id="*Paper_Space" />
    <symbol
       id="SEANNOT_GROUP" />
    <symbol
       id="_DOT" />
    <symbol
       id="SEANNOT_GROUP1" />
    <symbol
       id="SEANNOT_GROUP2" />
    <symbol
       id="SEANNOT_GROUP3" />
  </defs>
  <sodipodi:namedview
     id="base"
     pagecolor="#ffffff"
     bordercolor="#666666"
     borderopacity="1.0"
     inkscape:pageopacity="0.0"
     inkscape:pageshadow="2"
     inkscape:zoom="1"
     inkscape:cx="373.73553"
     inkscape:cy="263.27104"
     inkscape:document-units="mm"
     inkscape:current-layer="layer1"
     inkscape:document-rotation="0"
     showgrid="false"
     showguides="true"
     inkscape:window-width="1680"
     inkscape:window-height="1005"
     inkscape:window-x="0"
     inkscape:window-y="23"
     inkscape:window-maximized="1" />
  <metadata
     id="metadata5">
    <rdf:RDF>
      <cc:Work
         rdf:about="">
        <dc:format>image/svg+xml</dc:format>
        <dc:type
           rdf:resource="http://purl.org/dc/dcmitype/StillImage" />
        <dc:title></dc:title>
      </cc:Work>
    </rdf:RDF>
  </metadata>
  <g
     inkscape:label="レイヤー 1"
     inkscape:groupmode="layer"
     id="layer1">
    <g
       inkscape:label="0"
       id="g89"
       transform="matrix(0.26458333,0,0,0.26458333,-123.78314,-19.585024)"
       style="stroke:#0000ff;stroke-width:0.377953;stroke-miterlimit:4;stroke-dasharray:none;stroke-opacity:1">
      <path
         d="m -0.629291,1122.5197 a 0.629291,0.629291 0 0 0 1.258582,0 0.629291,0.629291 0 0 0 -1.258582,0 z"
         style="fill:none;stroke:#0000ff;stroke-width:0.377953;stroke-miterlimit:4;stroke-dasharray:none;stroke-opacity:1"
         id="path85" />
      <path
         d="M 0,1122.5197 H -3.779528"
         style="fill:none;stroke:#0000ff;stroke-width:0.377953;stroke-miterlimit:4;stroke-dasharray:none;stroke-opacity:1"
         id="path87" />
    </g>
    <path
       id="path91"
       style="fill:none;stroke:#ff0000;stroke-width:0.1;stroke-linecap:round;stroke-miterlimit:4;stroke-dasharray:none;stroke-opacity:1"
       d="M 14.524998,110.67501 H 28.524999" />
    <path
       id="path93"
       style="fill:none;stroke:#ff0000;stroke-width:0.1;stroke-linecap:round;stroke-miterlimit:4;stroke-dasharray:none;stroke-opacity:1"
       d="M 28.524999,110.67501 V 96.675001" />
    <path
       id="path95"
       style="fill:none;stroke:#ff0000;stroke-width:0.1;stroke-linecap:round;stroke-miterlimit:4;stroke-dasharray:none;stroke-opacity:1"
       d="M 28.524999,96.675001 H 14.524998" />
    <path
       id="path97"
       style="fill:none;stroke:#ff0000;stroke-width:0.1;stroke-linecap:round;stroke-miterlimit:4;stroke-dasharray:none;stroke-opacity:1"
       d="M 14.524998,96.675001 V 110.67501" />
    <path
       id="path99"
       style="fill:none;stroke:#ff0000;stroke-width:0.1;stroke-linecap:round;stroke-miterlimit:4;stroke-dasharray:none;stroke-opacity:1"
       d="M 33.574998,110.67501 H 47.574999" />
    <path
       id="path101"
       style="fill:none;stroke:#ff0000;stroke-width:0.1;stroke-linecap:round;stroke-miterlimit:4;stroke-dasharray:none;stroke-opacity:1"
       d="M 47.574999,110.67501 V 96.675001" />
    <path
       id="path103"
       style="fill:none;stroke:#ff0000;stroke-width:0.1;stroke-linecap:round;stroke-miterlimit:4;stroke-dasharray:none;stroke-opacity:1"
       d="M 47.574999,96.675001 H 33.574998" />
    <path
       id="path105"
       style="fill:none;stroke:#ff0000;stroke-width:0.1;stroke-linecap:round;stroke-miterlimit:4;stroke-dasharray:none;stroke-opacity:1"
       d="M 33.574998,96.675001 V 110.67501" />
    <path
       id="path107"
       style="fill:none;stroke:#ff0000;stroke-width:0.1;stroke-linecap:round;stroke-miterlimit:4;stroke-dasharray:none;stroke-opacity:1"
       d="M 14.524998,129.72501 H 28.524999" />
    <path
       id="path109"
       style="fill:none;stroke:#ff0000;stroke-width:0.1;stroke-linecap:round;stroke-miterlimit:4;stroke-dasharray:none;stroke-opacity:1"
       d="m 28.524999,129.72501 v -14" />
    <path
       id="path111"
       style="fill:none;stroke:#ff0000;stroke-width:0.1;stroke-linecap:round;stroke-miterlimit:4;stroke-dasharray:none;stroke-opacity:1"
       d="M 28.524999,115.72501 H 14.524998" />
    <path
       id="path113"
       style="fill:none;stroke:#ff0000;stroke-width:0.1;stroke-linecap:round;stroke-miterlimit:4;stroke-dasharray:none;stroke-opacity:1"
       d="m 14.524998,115.72501 v 14" />
    <path
       id="path115"
       style="fill:none;stroke:#ff0000;stroke-width:0.1;stroke-linecap:round;stroke-miterlimit:4;stroke-dasharray:none;stroke-opacity:1"
       d="M 33.574998,129.72501 H 47.574999" />
    <path
       id="path117"
       style="fill:none;stroke:#ff0000;stroke-width:0.1;stroke-linecap:round;stroke-miterlimit:4;stroke-dasharray:none;stroke-opacity:1"
       d="m 47.574999,129.72501 v -14" />
    <path
       id="path119"
       style="fill:none;stroke:#ff0000;stroke-width:0.1;stroke-linecap:round;stroke-miterlimit:4;stroke-dasharray:none;stroke-opacity:1"
       d="M 47.574999,115.72501 H 33.574998" />
    <path
       id="path121"
       style="fill:none;stroke:#ff0000;stroke-width:0.1;stroke-linecap:round;stroke-miterlimit:4;stroke-dasharray:none;stroke-opacity:1"
       d="m 33.574998,115.72501 v 14" />
    <path
       id="path123"
       style="fill:none;stroke:#0000ff;stroke-width:0.1;stroke-linecap:round;stroke-miterlimit:4;stroke-dasharray:none;stroke-opacity:1"
       d="m 8.049999,138.20001 h 46" />
    <path
       id="path125"
       style="fill:none;stroke:#0000ff;stroke-width:0.1;stroke-linecap:round;stroke-miterlimit:4;stroke-dasharray:none;stroke-opacity:1"
       d="M 56.049998,136.20001 V 90.200002" />
    <path
       id="path127"
       style="fill:none;stroke:#0000ff;stroke-width:0.1;stroke-linecap:round;stroke-miterlimit:4;stroke-dasharray:none;stroke-opacity:1"
       d="m 54.049999,88.2 h -46" />
    <path
       id="path129"
       style="fill:none;stroke:#0000ff;stroke-width:0.1;stroke-linecap:round;stroke-miterlimit:4;stroke-dasharray:none;stroke-opacity:1"
       d="M 6.05,90.200002 V 136.20001" />
    <path
       id="path131"
       style="fill:none;stroke:#0000ff;stroke-width:0.1;stroke-linecap:round;stroke-miterlimit:4;stroke-dasharray:none;stroke-opacity:1"
       d="M 8.049999,88.2 A 1.9999999,1.9999999 0 0 0 6.05,90.200002" />
    <path
       id="path133"
       style="fill:none;stroke:#0000ff;stroke-width:0.1;stroke-linecap:round;stroke-miterlimit:4;stroke-dasharray:none;stroke-opacity:1"
       d="M 56.049998,90.200002 A 1.9999999,1.9999999 0 0 0 54.049999,88.2" />
    <path
       id="path135"
       style="fill:none;stroke:#0000ff;stroke-width:0.1;stroke-linecap:round;stroke-miterlimit:4;stroke-dasharray:none;stroke-opacity:1"
       d="m 54.049999,138.20001 a 1.9999999,1.9999999 0 0 0 1.999999,-2" />
    <path
       id="path137"
       style="fill:none;stroke:#0000ff;stroke-width:0.1;stroke-linecap:round;stroke-miterlimit:4;stroke-dasharray:none;stroke-opacity:1"
       d="m 6.05,136.20001 a 1.9999999,1.9999999 0 0 0 1.999999,2" />
    <path
       id="path139"
       style="fill:none;stroke:#ff0000;stroke-width:0.1;stroke-linecap:round;stroke-miterlimit:4;stroke-dasharray:none;stroke-opacity:1"
       d="m 11.15,92.200003 a 1.1,1.1 0 1 0 -2.2,0 1.1,1.1 0 1 0 2.2,0 z" />
    <path
       id="path141"
       style="fill:none;stroke:#ff0000;stroke-width:0.1;stroke-linecap:round;stroke-miterlimit:4;stroke-dasharray:none;stroke-opacity:1"
       d="m 53.149998,92.200003 a 1.1000005,1.1000005 0 1 0 -2.200001,0 1.1000005,1.1000005 0 1 0 2.200001,0 z" />
    <path
       id="path143"
       style="fill:none;stroke:#ff0000;stroke-width:0.1;stroke-linecap:round;stroke-miterlimit:4;stroke-dasharray:none;stroke-opacity:1"
       d="m 11.15,134.20001 a 1.1,1.1 0 1 0 -2.2,0 1.1,1.1 0 1 0 2.2,0 z" />
    <path
       id="path145"
       style="fill:none;stroke:#ff0000;stroke-width:0.1;stroke-linecap:round;stroke-miterlimit:4;stroke-dasharray:none;stroke-opacity:1"
       d="m 53.149998,134.20001 a 1.1000005,1.1000005 0 1 0 -2.200001,0 1.1000005,1.1000005 0 1 0 2.200001,0 z" />
    <path
       id="path155"
       style="fill:none;stroke:#0000ff;stroke-width:0.1;stroke-linecap:round;stroke-miterlimit:4;stroke-dasharray:none;stroke-opacity:1"
       d="M 8.050001,82.199999 H 86.550003" />
    <path
       id="path157"
       style="fill:none;stroke:#0000ff;stroke-width:0.1;stroke-linecap:round;stroke-miterlimit:4;stroke-dasharray:none;stroke-opacity:1"
       d="M 88.550003,80.199998 V 8.05" />
    <path
       id="path159"
       style="fill:none;stroke:#0000ff;stroke-width:0.1;stroke-linecap:round;stroke-miterlimit:4;stroke-dasharray:none;stroke-opacity:1"
       d="M 86.550003,6.05 H 8.050001" />
    <path
       id="path161"
       style="fill:none;stroke:#0000ff;stroke-width:0.1;stroke-linecap:round;stroke-miterlimit:4;stroke-dasharray:none;stroke-opacity:1"
       d="M 6.05,8.05 V 80.199998" />
    <path
       id="path163"
       style="fill:none;stroke:#0000ff;stroke-width:0.1;stroke-linecap:round;stroke-miterlimit:4;stroke-dasharray:none;stroke-opacity:1"
       d="M 8.050001,6.05 A 1.9999999,1.9999999 0 0 0 6.05,8.05" />
    <path
       id="path165"
       style="fill:none;stroke:#0000ff;stroke-width:0.1;stroke-linecap:round;stroke-miterlimit:4;stroke-dasharray:none;stroke-opacity:1"
       d="m 88.550003,8.05 a 1.9999999,1.9999999 0 0 0 -2,-2" />
    <path
       id="path167"
       style="fill:none;stroke:#0000ff;stroke-width:0.1;stroke-linecap:round;stroke-miterlimit:4;stroke-dasharray:none;stroke-opacity:1"
       d="m 86.550003,82.199999 a 1.9999999,1.9999999 0 0 0 2,-2.000001" />
    <path
       id="path169"
       style="fill:none;stroke:#0000ff;stroke-width:0.1;stroke-linecap:round;stroke-miterlimit:4;stroke-dasharray:none;stroke-opacity:1"
       d="m 6.05,80.199998 a 1.9999999,1.9999999 0 0 0 2.000001,2.000001" />
    <path
       id="path171"
       style="fill:none;stroke:#ff0000;stroke-width:0.1;stroke-linecap:round;stroke-miterlimit:4;stroke-dasharray:none;stroke-opacity:1"
       d="m 11.150098,36.204557 a 1.1,1.1 0 1 0 -2.2,0 1.1,1.1 0 1 0 2.2,0 z" />
    <path
       id="path173"
       style="fill:none;stroke:#ff0000;stroke-width:0.1;stroke-linecap:round;stroke-miterlimit:4;stroke-dasharray:none;stroke-opacity:1"
       d="m 53.150098,36.204557 a 1.1,1.1 0 1 0 -2.2,0 1.1,1.1 0 1 0 2.2,0 z" />
    <path
       id="path175"
       style="fill:none;stroke:#ff0000;stroke-width:0.1;stroke-linecap:round;stroke-miterlimit:4;stroke-dasharray:none;stroke-opacity:1"
       d="m 11.150098,78.204558 a 1.1,1.1 0 1 0 -2.2,0 1.1,1.1 0 1 0 2.2,0 z" />
    <path
       id="path177"
       style="fill:none;stroke:#ff0000;stroke-width:0.1;stroke-linecap:round;stroke-miterlimit:4;stroke-dasharray:none;stroke-opacity:1"
       d="m 53.150098,78.204558 a 1.1,1.1 0 1 0 -2.2,0 1.1,1.1 0 1 0 2.2,0 z" />
    <path
       id="path179"
       style="fill:none;stroke:#ff0000;stroke-width:0.1;stroke-linecap:round;stroke-miterlimit:4;stroke-dasharray:none;stroke-opacity:1"
       d="M 14.524998,110.67501 H 28.524999" />
    <path
       id="path181"
       style="fill:none;stroke:#ff0000;stroke-width:0.1;stroke-linecap:round;stroke-miterlimit:4;stroke-dasharray:none;stroke-opacity:1"
       d="M 28.524999,110.67501 V 96.675001" />
    <path
       id="path183"
       style="fill:none;stroke:#ff0000;stroke-width:0.1;stroke-linecap:round;stroke-miterlimit:4;stroke-dasharray:none;stroke-opacity:1"
       d="M 28.524999,96.675001 H 14.524998" />
    <path
       id="path185"
       style="fill:none;stroke:#ff0000;stroke-width:0.1;stroke-linecap:round;stroke-miterlimit:4;stroke-dasharray:none;stroke-opacity:1"
       d="M 14.524998,96.675001 V 110.67501" />
    <path
       id="path187"
       style="fill:none;stroke:#ff0000;stroke-width:0.1;stroke-linecap:round;stroke-miterlimit:4;stroke-dasharray:none;stroke-opacity:1"
       d="M 33.574998,110.67501 H 47.574999" />
    <path
       id="path189"
       style="fill:none;stroke:#ff0000;stroke-width:0.1;stroke-linecap:round;stroke-miterlimit:4;stroke-dasharray:none;stroke-opacity:1"
       d="M 47.574999,110.67501 V 96.675001" />
    <path
       id="path191"
       style="fill:none;stroke:#ff0000;stroke-width:0.1;stroke-linecap:round;stroke-miterlimit:4;stroke-dasharray:none;stroke-opacity:1"
       d="M 47.574999,96.675001 H 33.574998" />
    <path
       id="path193"
       style="fill:none;stroke:#ff0000;stroke-width:0.1;stroke-linecap:round;stroke-miterlimit:4;stroke-dasharray:none;stroke-opacity:1"
       d="M 33.574998,96.675001 V 110.67501" />
    <path
       id="path195"
       style="fill:none;stroke:#ff0000;stroke-width:0.1;stroke-linecap:round;stroke-miterlimit:4;stroke-dasharray:none;stroke-opacity:1"
       d="M 14.524998,129.72501 H 28.524999" />
    <path
       id="path197"
       style="fill:none;stroke:#ff0000;stroke-width:0.1;stroke-linecap:round;stroke-miterlimit:4;stroke-dasharray:none;stroke-opacity:1"
       d="m 28.524999,129.72501 v -14" />
    <path
       id="path199"
       style="fill:none;stroke:#ff0000;stroke-width:0.1;stroke-linecap:round;stroke-miterlimit:4;stroke-dasharray:none;stroke-opacity:1"
       d="M 28.524999,115.72501 H 14.524998" />
    <path
       id="path201"
       style="fill:none;stroke:#ff0000;stroke-width:0.1;stroke-linecap:round;stroke-miterlimit:4;stroke-dasharray:none;stroke-opacity:1"
       d="m 14.524998,115.72501 v 14" />
    <path
       id="path203"
       style="fill:none;stroke:#ff0000;stroke-width:0.1;stroke-linecap:round;stroke-miterlimit:4;stroke-dasharray:none;stroke-opacity:1"
       d="M 33.574998,129.72501 H 47.574999" />
    <path
       id="path205"
       style="fill:none;stroke:#ff0000;stroke-width:0.1;stroke-linecap:round;stroke-miterlimit:4;stroke-dasharray:none;stroke-opacity:1"
       d="m 47.574999,129.72501 v -14" />
    <path
       id="path207"
       style="fill:none;stroke:#ff0000;stroke-width:0.1;stroke-linecap:round;stroke-miterlimit:4;stroke-dasharray:none;stroke-opacity:1"
       d="M 47.574999,115.72501 H 33.574998" />
    <path
       id="path209"
       style="fill:none;stroke:#ff0000;stroke-width:0.1;stroke-linecap:round;stroke-miterlimit:4;stroke-dasharray:none;stroke-opacity:1"
       d="m 33.574998,115.72501 v 14" />
    <path
       id="path211"
       style="fill:none;stroke:#0000ff;stroke-width:0.1;stroke-linecap:round;stroke-miterlimit:4;stroke-dasharray:none;stroke-opacity:1"
       d="m 8.049999,138.20001 h 46" />
    <path
       id="path213"
       style="fill:none;stroke:#0000ff;stroke-width:0.1;stroke-linecap:round;stroke-miterlimit:4;stroke-dasharray:none;stroke-opacity:1"
       d="M 56.049998,136.20001 V 90.200002" />
    <path
       id="path215"
       style="fill:none;stroke:#0000ff;stroke-width:0.1;stroke-linecap:round;stroke-miterlimit:4;stroke-dasharray:none;stroke-opacity:1"
       d="m 54.049999,88.2 h -46" />
    <path
       id="path217"
       style="fill:none;stroke:#0000ff;stroke-width:0.1;stroke-linecap:round;stroke-miterlimit:4;stroke-dasharray:none;stroke-opacity:1"
       d="M 6.05,90.200002 V 136.20001" />
    <path
       id="path219"
       style="fill:none;stroke:#0000ff;stroke-width:0.1;stroke-linecap:round;stroke-miterlimit:4;stroke-dasharray:none;stroke-opacity:1"
       d="M 8.049999,88.2 A 1.9999999,1.9999999 0 0 0 6.05,90.200002" />
    <path
       id="path221"
       style="fill:none;stroke:#0000ff;stroke-width:0.1;stroke-linecap:round;stroke-miterlimit:4;stroke-dasharray:none;stroke-opacity:1"
       d="M 56.049998,90.200002 A 1.9999999,1.9999999 0 0 0 54.049999,88.2" />
    <path
       id="path223"
       style="fill:none;stroke:#0000ff;stroke-width:0.1;stroke-linecap:round;stroke-miterlimit:4;stroke-dasharray:none;stroke-opacity:1"
       d="m 54.049999,138.20001 a 1.9999999,1.9999999 0 0 0 1.999999,-2" />
    <path
       id="path225"
       style="fill:none;stroke:#0000ff;stroke-width:0.1;stroke-linecap:round;stroke-miterlimit:4;stroke-dasharray:none;stroke-opacity:1"
       d="m 6.05,136.20001 a 1.9999999,1.9999999 0 0 0 1.999999,2" />
    <path
       id="path227"
       style="fill:none;stroke:#ff0000;stroke-width:0.1;stroke-linecap:round;stroke-miterlimit:4;stroke-dasharray:none;stroke-opacity:1"
       d="m 11.15,92.200003 a 1.1,1.1 0 1 0 -2.2,0 1.1,1.1 0 1 0 2.2,0 z" />
    <path
       id="path229"
       style="fill:none;stroke:#ff0000;stroke-width:0.1;stroke-linecap:round;stroke-miterlimit:4;stroke-dasharray:none;stroke-opacity:1"
       d="m 53.149998,92.200003 a 1.1000005,1.1000005 0 1 0 -2.200001,0 1.1000005,1.1000005 0 1 0 2.200001,0 z" />
    <path
       id="path231"
       style="fill:none;stroke:#ff0000;stroke-width:0.1;stroke-linecap:round;stroke-miterlimit:4;stroke-dasharray:none;stroke-opacity:1"
       d="m 11.15,134.20001 a 1.1,1.1 0 1 0 -2.2,0 1.1,1.1 0 1 0 2.2,0 z" />
    <path
       id="path233"
       style="fill:none;stroke:#ff0000;stroke-width:0.1;stroke-linecap:round;stroke-miterlimit:4;stroke-dasharray:none;stroke-opacity:1"
       d="m 53.149998,134.20001 a 1.1000005,1.1000005 0 1 0 -2.200001,0 1.1000005,1.1000005 0 1 0 2.200001,0 z" />
    <path
       id="path235"
       style="fill:none;stroke:#0000ff;stroke-width:0.1;stroke-linecap:round;stroke-miterlimit:4;stroke-dasharray:none;stroke-opacity:1"
       d="M 8.050001,82.199999 H 86.550003" />
    <path
       id="path237"
       style="fill:none;stroke:#0000ff;stroke-width:0.1;stroke-linecap:round;stroke-miterlimit:4;stroke-dasharray:none;stroke-opacity:1"
       d="M 88.550003,80.199998 V 8.05" />
    <path
       id="path239"
       style="fill:none;stroke:#0000ff;stroke-width:0.1;stroke-linecap:round;stroke-miterlimit:4;stroke-dasharray:none;stroke-opacity:1"
       d="M 86.550003,6.05 H 8.050001" />
    <path
       id="path241"
       style="fill:none;stroke:#0000ff;stroke-width:0.1;stroke-linecap:round;stroke-miterlimit:4;stroke-dasharray:none;stroke-opacity:1"
       d="M 6.05,8.05 V 80.199998" />
    <path
       id="path243"
       style="fill:none;stroke:#0000ff;stroke-width:0.1;stroke-linecap:round;stroke-miterlimit:4;stroke-dasharray:none;stroke-opacity:1"
       d="M 8.050001,6.05 A 1.9999999,1.9999999 0 0 0 6.05,8.05" />
    <path
       id="path245"
       style="fill:none;stroke:#0000ff;stroke-width:0.1;stroke-linecap:round;stroke-miterlimit:4;stroke-dasharray:none;stroke-opacity:1"
       d="m 88.550003,8.05 a 1.9999999,1.9999999 0 0 0 -2,-2" />
    <path
       id="path247"
       style="fill:none;stroke:#0000ff;stroke-width:0.1;stroke-linecap:round;stroke-miterlimit:4;stroke-dasharray:none;stroke-opacity:1"
       d="m 86.550003,82.199999 a 1.9999999,1.9999999 0 0 0 2,-2.000001" />
    <path
       id="path249"
       style="fill:none;stroke:#0000ff;stroke-width:0.1;stroke-linecap:round;stroke-miterlimit:4;stroke-dasharray:none;stroke-opacity:1"
       d="m 6.05,80.199998 a 1.9999999,1.9999999 0 0 0 2.000001,2.000001" />
    <path
       id="path251"
       style="fill:none;stroke:#ff0000;stroke-width:0.1;stroke-linecap:round;stroke-miterlimit:4;stroke-dasharray:none;stroke-opacity:1"
       d="m 11.150098,36.204557 a 1.1,1.1 0 1 0 -2.2,0 1.1,1.1 0 1 0 2.2,0 z" />
    <path
       id="path253"
       style="fill:none;stroke:#ff0000;stroke-width:0.1;stroke-linecap:round;stroke-miterlimit:4;stroke-dasharray:none;stroke-opacity:1"
       d="m 53.150098,36.204557 a 1.1,1.1 0 1 0 -2.2,0 1.1,1.1 0 1 0 2.2,0 z" />
    <path
       id="path255"
       style="fill:none;stroke:#ff0000;stroke-width:0.1;stroke-linecap:round;stroke-miterlimit:4;stroke-dasharray:none;stroke-opacity:1"
       d="m 11.150098,78.204558 a 1.1,1.1 0 1 0 -2.2,0 1.1,1.1 0 1 0 2.2,0 z" />
    <path
       id="path257"
       style="fill:none;stroke:#ff0000;stroke-width:0.1;stroke-linecap:round;stroke-miterlimit:4;stroke-dasharray:none;stroke-opacity:1"
       d="m 53.150098,78.204558 a 1.1,1.1 0 1 0 -2.2,0 1.1,1.1 0 1 0 2.2,0 z" />
    <use
       id="use407"
       transform="matrix(0.80644999,0,0,0,-123.78314,-19.585024)"
       xlink:href="#SEANNOT_GROUP"
       x="0"
       y="0"
       width="100%"
       height="100%"
       style="stroke:#0000ff;stroke-width:0.377953;stroke-miterlimit:4;stroke-dasharray:none;stroke-opacity:1" />
    <use
       id="use413"
       transform="matrix(0.80644999,0,0,0,-123.78314,-19.585024)"
       xlink:href="#SEANNOT_GROUP1"
       x="0"
       y="0"
       width="100%"
       height="100%"
       style="stroke:#0000ff;stroke-width:0.377953;stroke-miterlimit:4;stroke-dasharray:none;stroke-opacity:1" />
    <use
       id="use439"
       transform="matrix(0.80644999,0,0,0,-123.78314,-19.585024)"
       xlink:href="#SEANNOT_GROUP2"
       x="0"
       y="0"
       width="100%"
       height="100%"
       style="stroke:#0000ff;stroke-width:0.377953;stroke-miterlimit:4;stroke-dasharray:none;stroke-opacity:1" />
    <use
       id="use449"
       transform="matrix(0.80644999,0,0,0,-123.78314,-19.585024)"
       xlink:href="#SEANNOT_GROUP3"
       x="0"
       y="0"
       width="100%"
       height="100%"
       style="stroke:#0000ff;stroke-width:0.377953;stroke-miterlimit:4;stroke-dasharray:none;stroke-opacity:1" />
  </g>
</svg>
